<svg width="15" height="15" viewBox="0 0 15 15" fill="none" xmlns="http://www.w3.org/2000/svg">
<g id="language-filled-svgrepo-com 1">
<g id="Page-1">
<g id="icon">
<path id="Combined-Shape" fill-rule="evenodd" clip-rule="evenodd" d="M13.75 5V12.5H11.8738L11.875 14.375L8.75 12.5H6.25V5H13.75ZM8.75 2.5V4.375H5.625L5.62499 10.375L3.125 11.875L3.12618 10H1.25V2.5H8.75ZM10.3671 6.875H9.63673L8.25 10.625H8.90896L9.2927 9.55055H10.7006L11.087 10.625H11.7856L10.3671 6.875ZM9.99665 7.50221C10.0538 7.69363 10.1143 7.88235 10.1781 8.06838L10.2057 8.14794L10.5206 9.03714H9.47001L9.78493 8.14794C9.87315 7.9027 9.94372 7.68746 9.99665 7.50221ZM4.67864 3.51189H4.05364L4.05363 3.82437L2.49114 3.82439V4.44939L4.82409 4.44942C4.78661 4.98169 4.65157 5.46113 4.41917 5.89064C4.16682 5.54358 3.99299 5.15565 3.8966 4.72445L3.89042 4.69626L3.27936 4.82751L3.32521 5.01831C3.46436 5.54062 3.70444 6.01128 4.0443 6.4276C3.67569 6.82535 3.14747 7.10435 2.44992 7.26335L2.42335 7.26933L2.55893 7.87945L2.74549 7.83454C3.47355 7.64541 4.0546 7.32607 4.48117 6.87554C4.78014 7.1334 5.15062 7.37715 5.59252 7.60804L5.62498 7.62491L5.62497 6.91321C5.3226 6.73903 5.06762 6.55994 4.85999 6.37665C5.20462 5.8166 5.40062 5.18343 5.44836 4.48138L5.45043 4.44942L5.62497 4.44939V3.82437H4.67862L4.67864 3.51189Z" fill="#682CEE"/>
</g>
</g>
</g>
</svg>
