<?xml version="1.0" standalone="no"?>
<!DOCTYPE svg PUBLIC "-//W3C//DTD SVG 20010904//EN"
 "http://www.w3.org/TR/2001/REC-SVG-20010904/DTD/svg10.dtd">
<svg version="1.0" xmlns="http://www.w3.org/2000/svg"
 width="44.000000pt" height="55.000000pt" viewBox="0 0 44.000000 55.000000"
 preserveAspectRatio="xMidYMid meet">

<g transform="translate(0.000000,55.000000) scale(0.100000,-0.100000)"
fill="#000000" stroke="none">
<path d="M318 543 c-14 -2 -31 -10 -36 -16 -10 -14 -33 -207 -26 -219 8 -12
38 -10 52 4 7 7 12 26 13 43 0 16 4 39 9 50 7 16 9 13 9 -17 1 -20 4 -43 7
-52 7 -19 53 -21 59 -3 3 6 -1 57 -8 112 -13 108 -13 109 -79 98z"/>
<path d="M186 504 c-3 -9 -6 -29 -6 -44 0 -16 -4 -32 -10 -35 -6 -4 -10 10
-10 34 0 47 -9 55 -44 41 -22 -8 -26 -16 -26 -47 0 -21 -5 -45 -10 -53 -7 -11
-10 -6 -10 22 0 48 -8 68 -29 68 -39 -1 -42 -12 -30 -116 7 -54 15 -103 20
-108 4 -5 23 -6 42 -2 34 6 35 8 43 69 l8 62 8 -54 c5 -30 10 -57 13 -59 2 -2
21 0 42 5 l38 9 12 89 c17 137 18 135 -16 135 -17 0 -31 -6 -35 -16z"/>
<path d="M293 283 c-72 -14 -82 -19 -88 -40 -7 -30 1 -43 26 -43 14 0 19 -7
19 -28 0 -42 14 -51 66 -40 46 10 70 4 45 -11 -8 -5 -31 -12 -53 -15 -39 -6
-59 -29 -41 -47 10 -10 157 11 169 24 3 3 1 31 -3 63 l-9 59 -57 -3 c-73 -3
-74 13 -1 28 52 11 55 13 52 38 -4 33 -17 35 -125 15z"/>
<path d="M139 253 c-12 -3 -20 -22 -26 -61 l-9 -57 -8 53 c-7 46 -11 52 -31
52 -13 0 -26 -4 -29 -9 -10 -16 17 -213 30 -218 7 -2 30 1 53 7 38 10 41 13
42 48 l1 37 11 -32 c7 -18 15 -33 20 -33 53 -1 50 -4 43 61 -7 71 -11 79 -36
79 -14 0 -20 9 -22 37 -3 37 -10 44 -39 36z"/>
</g>
</svg>
